<?xml version="1.0" standalone="no"?>
<!DOCTYPE svg PUBLIC "-//W3C//DTD SVG 20010904//EN"
 "http://www.w3.org/TR/2001/REC-SVG-20010904/DTD/svg10.dtd">
<svg version="1.0" xmlns="http://www.w3.org/2000/svg"
 width="6720.000000pt" height="4480.000000pt" viewBox="0 0 6720.000000 4480.000000"
 preserveAspectRatio="xMidYMid meet">

<g transform="translate(0.000000,4480.000000) scale(0.100000,-0.100000)"
fill="#000000" stroke="none">
<path d="M0 22400 l0 -22400 33600 0 33600 0 0 22400 0 22400 -33600 0 -33600
0 0 -22400z m6330 22320 c0 -21 -27 -40 -59 -40 -30 0 -26 27 7 44 37 21 52
20 52 -4z m21648 -46 c-9 -9 -24 -14 -34 -12 -16 3 -14 7 11 20 35 19 46 15
23 -8z m5331 -75 c-25 -19 -40 -21 -41 -4 -1 13 43 35 55 28 5 -3 -1 -14 -14
-24z m-12019 -8 c0 -12 -21 -27 -47 -34 -15 -3 -23 -1 -23 7 0 13 35 34 58 35
6 1 12 -3 12 -8z m26030 -6 c-7 -8 -18 -15 -24 -15 -6 0 -2 7 8 15 25 19 32
19 16 0z m11830 -10 c0 -14 -79 -59 -88 -50 -11 10 12 45 36 54 39 14 52 13
52 -4z m-17632 -94 c10 -6 7 -12 -12 -24 -14 -10 -32 -17 -41 -17 -23 0 -18
25 8 38 28 13 29 14 45 3z m2866 -50 c8 -12 -41 -43 -61 -39 -26 5 -26 24 -1
36 29 13 55 15 62 3z m14696 -70 c0 -22 -63 -61 -76 -48 -10 10 8 34 34 44 36
14 42 15 42 4z m-26176 -46 c-22 -16 -44 -19 -44 -6 0 11 18 19 44 20 20 1 20
1 0 -14z m1926 -1 c0 -12 -34 -33 -52 -34 -10 0 -18 4 -18 10 0 5 8 14 18 19
19 12 52 14 52 5z m24616 -79 c-22 -17 -36 -19 -36 -7 0 14 12 22 34 22 21 -1
21 -1 2 -15z m-32401 -74 c8 -14 -44 -51 -71 -51 -34 0 -37 16 -8 39 28 22 69
28 79 12z m8645 -24 c0 -8 -11 -19 -25 -25 -52 -24 -75 -7 -33 22 28 20 58 21
58 3z m1990 -16 c0 -16 -51 -43 -68 -36 -15 6 -14 9 7 26 24 20 61 26 61 10z
m5144 -66 c-22 -17 -34 -19 -34 -6 0 5 8 12 18 14 32 9 36 7 16 -8z m-1259 -5
c8 -12 -40 -43 -61 -38 -27 5 -28 27 -2 37 31 13 55 13 63 1z m-25024 -78
c-10 -19 -66 -40 -77 -29 -11 11 12 40 40 52 36 16 52 6 37 -23z m18939 8 c0
-23 -53 -52 -77 -43 -34 13 9 63 54 63 17 0 23 -6 23 -20z m-31040 -124 c0 -2
-7 -7 -16 -10 -8 -3 -12 -2 -9 4 6 10 25 14 25 6z m12895 -46 c-3 -5 -11 -10
-16 -10 -6 0 -7 5 -4 10 3 6 11 10 16 10 6 0 7 -4 4 -10z m14431 -26 c-11 -8
-31 -14 -44 -14 -21 0 -23 2 -11 16 18 22 52 34 64 22 7 -6 3 -14 -9 -24z
m-3220 -80 c-22 -16 -36 -18 -36 -6 0 11 43 32 50 25 3 -3 -4 -11 -14 -19z
m-26414 -29 c1 -14 -49 -41 -59 -31 -4 4 3 16 16 27 24 20 42 21 43 4z m972
-20 c9 -34 2 -42 -37 -50 -17 -4 -41 -13 -53 -20 -21 -13 -21 -13 -9 22 11 32
56 73 81 73 7 0 15 -11 18 -25z m33956 -105 c0 -5 -4 -10 -9 -10 -5 0 -18 -3
-28 -6 -16 -5 -16 -4 1 10 23 18 36 20 36 6z m-4811 -64 c5 -13 17 -26 26 -30
14 -5 12 -10 -13 -31 -44 -37 -81 -49 -101 -32 -9 8 -25 17 -35 21 -17 6 -13
12 30 51 55 50 80 56 93 21z m-8609 -21 c0 -17 -30 -35 -59 -35 -29 0 -26 17
7 34 35 19 52 20 52 1z m28887 -12 c5 -13 -46 -43 -72 -43 -22 0 -18 27 8 45
24 17 58 16 64 -2z m-21423 -54 c-18 -20 -64 -26 -64 -9 0 14 52 39 68 33 10
-4 9 -9 -4 -24z m-6334 -149 c-20 -13 -33 -13 -25 0 3 6 14 10 23 10 15 0 15
-2 2 -10z m9845 -70 c-3 -5 -14 -10 -23 -10 -15 0 -15 2 -2 10 20 13 33 13 25
0z m-3605 -30 c0 -5 -4 -10 -9 -10 -5 0 -18 -3 -28 -6 -16 -5 -16 -4 1 10 23
18 36 20 36 6z m-12415 -20 c-3 -5 -11 -10 -16 -10 -6 0 -7 5 -4 10 3 6 11 10
16 10 6 0 7 -4 4 -10z m-7475 -21 c0 -18 -41 -49 -65 -49 -40 0 -30 27 20 53
30 15 45 14 45 -4z m22341 1 c-24 -21 -61 -27 -61 -10 0 14 32 29 60 29 l25 0
-24 -19z m12565 -62 c9 -14 -31 -48 -57 -48 -27 0 -24 34 4 48 29 14 44 14 53
0z m4682 -50 c4 -23 -33 -55 -75 -63 -42 -8 -43 -7 -36 25 9 47 103 80 111 38z
m-24948 -87 c0 -16 -43 -41 -70 -41 l-25 1 28 24 c28 25 67 34 67 16z m-6680
-56 c-7 -8 -20 -15 -29 -15 -11 1 -8 5 9 15 32 18 35 18 20 0z m16412 0 c1 -6
-11 -17 -25 -25 -20 -11 -29 -12 -38 -3 -8 8 -4 15 17 27 31 16 45 17 46 1z
m-12425 -12 c7 -20 -35 -53 -66 -53 -51 0 -49 25 4 53 33 18 56 18 62 0z
m26073 -81 c0 -17 -21 -32 -63 -46 -29 -9 -34 24 -8 46 31 24 71 24 71 0z
m-36530 -7 c-7 -8 -17 -15 -23 -15 -6 0 -2 7 9 15 25 19 30 19 14 0z m22200
-15 c-8 -5 -22 -10 -30 -10 -13 0 -13 1 0 10 8 5 22 10 30 10 13 0 13 -1 0
-10z m-15980 -24 c0 -3 -4 -8 -10 -11 -5 -3 -10 -1 -10 4 0 6 5 11 10 11 6 0
10 -2 10 -4z m9588 -28 c-6 -19 -57 -41 -76 -33 -15 6 -14 9 7 26 26 21 75 26
69 7z m5268 0 c10 -16 -44 -60 -70 -56 -32 5 -32 34 1 52 34 18 59 20 69 4z
m-3796 -233 c-7 -8 -24 -15 -39 -15 l-26 1 25 14 c35 20 57 20 40 0z m30370
-245 c0 -12 -40 -33 -48 -25 -4 4 2 13 12 21 23 16 36 18 36 4z m-28880 -28
c0 -5 -11 -14 -25 -20 -28 -13 -35 1 -7 17 21 13 32 14 32 3z m-13435 -12 c-3
-5 -11 -10 -16 -10 -6 0 -7 5 -4 10 3 6 11 10 16 10 6 0 7 -4 4 -10z m42100
-9 c11 -19 -85 -75 -101 -59 -10 10 9 39 35 53 30 16 57 19 66 6z m-47704 -62
c-25 -21 -41 -24 -41 -9 0 11 53 41 60 33 3 -2 -6 -13 -19 -24z m22329 1 c-8
-5 -19 -10 -25 -10 -5 0 -3 5 5 10 8 5 20 10 25 10 6 0 3 -5 -5 -10z m-2630
-149 c0 -14 -42 -41 -63 -41 -25 0 -17 22 14 37 29 15 49 16 49 4z m-364 -37
c-22 -16 -36 -18 -36 -6 0 11 43 32 50 25 3 -3 -4 -11 -14 -19z m9794 -39 c-7
-8 -20 -15 -29 -15 -13 1 -13 3 3 15 26 19 42 19 26 0z m-13344 -10 c-27 -21
-53 -20 -36 0 7 8 22 15 34 15 21 -1 21 -1 2 -15z m4204 1 c0 -18 -46 -48 -68
-44 -26 5 -26 33 0 46 33 15 68 15 68 -2z m-31214 -62 c-30 -21 -44 -16 -17 7
13 11 27 17 30 13 3 -3 -3 -12 -13 -20z m24154 11 c-7 -8 -20 -15 -29 -15 -11
1 -8 5 9 15 32 18 35 18 20 0z m-19950 -53 c0 -5 -11 -14 -25 -20 -28 -13 -35
1 -7 17 21 13 32 14 32 3z m-774 -48 c-23 -16 -50 -19 -41 -3 8 12 48 29 55
22 3 -3 -4 -11 -14 -19z m16344 11 c-7 -8 -22 -15 -34 -15 -21 1 -21 1 -2 15
27 21 53 20 36 0z m15700 -10 c15 -18 1 -39 -41 -61 -39 -20 -54 -18 -67 10
-10 22 -8 27 21 45 38 25 70 27 87 6z m-15720 -34 c0 -15 -51 -51 -71 -51 -20
0 -23 8 -11 26 18 26 82 46 82 25z m-8150 -31 c-24 -15 -37 -11 -16 5 11 8 22
12 25 9 3 -3 -1 -9 -9 -14z m32106 -32 c10 -16 -42 -58 -72 -58 -53 0 -11 68
43 69 12 1 25 -4 29 -11z m-886 -77 c0 -20 -63 -56 -80 -46 -23 14 -9 43 28
58 41 17 52 14 52 -12z m-7370 -31 c0 -10 -32 -30 -49 -30 -19 0 -12 17 12 28
28 14 37 14 37 2z m-31615 -129 c-3 -6 -14 -11 -23 -11 -13 0 -13 2 4 14 21
15 30 14 19 -3z m28003 -14 c4 -18 -52 -51 -74 -43 -23 9 -16 25 19 46 36 22
50 21 55 -3z m-1579 -48 c21 -28 21 -32 8 -53 -22 -32 -74 -53 -96 -37 -9 6
-24 14 -33 17 -25 9 -23 15 19 62 45 50 71 53 102 11z m6517 -14 c-11 -8 -27
-15 -35 -15 -13 1 -12 4 3 15 11 8 27 15 35 15 13 -1 12 -4 -3 -15z m-5555
-36 c-28 -23 -61 -25 -61 -4 0 20 61 47 75 34 7 -7 2 -17 -14 -30z m3279 13
c0 -14 -47 -35 -61 -27 -9 6 -7 11 6 22 21 14 55 18 55 5z m-28500 -20 c0 -5
-11 -14 -25 -20 -26 -12 -33 -4 -13 16 14 14 38 16 38 4z m40071 -74 c-26 -20
-37 -22 -46 -8 -7 11 46 41 59 32 5 -3 -1 -13 -13 -24z m-14303 -90 c-8 -23
-56 -44 -69 -31 -8 8 -4 15 17 27 35 19 57 20 52 4z m-23810 -32 c3 -35 -11
-45 -80 -60 -24 -6 -28 -3 -28 17 0 39 42 76 85 77 17 0 21 -7 23 -34z m6702
15 c0 -13 -41 -41 -60 -41 -10 1 -6 9 13 25 29 26 47 32 47 16z m7121 -30
c-12 -21 -33 -31 -64 -31 -21 1 -21 2 6 25 35 31 73 35 58 6z m24944 -12 c7
-11 -19 -35 -47 -42 -29 -8 -29 22 0 37 33 18 39 19 47 5z m-32334 -40 c-13
-11 -27 -17 -30 -14 -3 4 5 15 19 25 32 24 42 14 11 -11z m49145 6 c-11 -8
-27 -15 -35 -15 -13 1 -12 4 3 15 11 8 27 15 35 15 13 -1 12 -4 -3 -15z
m-4118 -22 c-4 -22 -74 -57 -97 -48 -13 5 -10 11 17 36 37 33 86 40 80 12z
m-57718 -11 c0 -5 -11 -14 -25 -20 -28 -13 -35 1 -7 17 21 13 32 14 32 3z
m27780 -12 c0 -14 -38 -32 -58 -28 -13 3 -10 8 13 21 35 19 45 21 45 7z m6060
0 c-8 -5 -19 -10 -25 -10 -5 0 -3 5 5 10 8 5 20 10 25 10 6 0 3 -5 -5 -10z
m-34260 -93 c0 -18 -42 -40 -66 -35 -18 3 -17 5 4 26 24 24 62 30 62 9z
m19130 -27 c0 -10 -52 -40 -70 -40 -20 0 -9 21 22 40 31 18 48 18 48 0z
m23198 -87 c-3 -41 -26 -59 -83 -65 -26 -3 -31 1 -33 22 -2 14 -8 29 -13 35
-17 18 33 45 84 45 l48 0 -3 -37z m-25198 -32 c0 -12 -20 -27 -47 -35 -18 -6
-22 -4 -17 7 8 22 64 47 64 28z m11486 -29 c-8 -13 -46 -22 -46 -11 0 10 42
30 49 23 1 -1 0 -7 -3 -12z m-14606 -22 c0 -20 -45 -50 -75 -50 -24 0 -18 26
11 49 34 27 64 27 64 1z m-6660 -15 c-7 -8 -18 -15 -24 -15 -6 0 -2 7 8 15 25
19 32 19 16 0z m-8815 -15 c3 -5 -8 -16 -24 -25 -20 -10 -32 -11 -36 -4 -8 12
-8 12 20 27 25 14 32 15 40 2z m21605 -19 c0 -5 -7 -12 -16 -15 -24 -9 -28 -7
-14 9 14 17 30 20 30 6z m10086 -6 c-11 -8 -27 -15 -35 -15 -13 1 -12 4 3 15
11 8 27 15 35 15 13 -1 12 -4 -3 -15z m-15206 -50 c0 -2 -10 -10 -22 -16 -21
-11 -22 -11 -9 4 13 16 31 23 31 12z m12200 -34 c0 -24 -36 -51 -67 -51 -35 0
-29 33 10 53 43 21 57 21 57 -2z m-29240 -212 c0 -16 -31 -38 -52 -39 -25 0
-22 16 4 34 26 19 48 21 48 5z m29716 -104 c-23 -17 -36 -19 -36 -6 0 11 18
19 40 20 11 0 10 -3 -4 -14z m-24506 -180 c-7 -8 -22 -15 -34 -15 -21 1 -21 1
-2 15 27 21 53 20 36 0z m-4814 -4 c-3 -5 -16 -11 -28 -14 -22 -6 -22 -5 -4 8
22 17 40 20 32 6z m14954 -26 c-7 -9 -15 -13 -19 -10 -3 3 1 10 9 15 21 14 24
12 10 -5z m10010 0 c-14 -7 -27 -11 -30 -9 -6 7 22 24 40 23 9 0 5 -6 -10 -14z
m20960 -34 c0 -12 -39 -25 -48 -16 -7 7 17 25 36 25 6 0 12 -4 12 -9z m-16859
-41 c-25 -22 -41 -26 -41 -10 0 11 30 29 50 29 10 0 8 -6 -9 -19z m26395 -22
c9 -14 -31 -48 -57 -48 -28 0 -23 27 9 44 33 19 39 19 48 4z m-46298 -35 c-4
-21 -54 -51 -65 -39 -8 8 44 56 60 56 5 0 7 -8 5 -17z m-4408 -43 c0 -20 -27
-40 -54 -40 -24 0 -19 35 7 48 33 16 47 14 47 -8z m35990 -120 c-20 -13 -33
-13 -25 0 3 6 14 10 23 10 15 0 15 -2 2 -10z m-19790 -53 c0 -30 -53 -59 -85
-47 -18 6 -18 8 7 33 29 28 78 37 78 14z m4800 -17 c-8 -5 -19 -10 -25 -10 -5
0 -3 5 5 10 8 5 20 10 25 10 6 0 3 -5 -5 -10z m34090 -51 c0 -16 -31 -38 -52
-39 -27 0 -22 17 10 34 33 19 42 19 42 5z m-56104 -34 c-11 -8 -22 -12 -25 -9
-6 6 19 24 34 24 6 -1 1 -7 -9 -15z m52120 -7 c9 -14 -31 -48 -57 -48 -28 0
-23 27 9 44 33 19 39 19 48 4z m-21046 -47 c0 -12 -40 -41 -57 -41 -21 0 -15
26 10 38 28 14 47 15 47 3z m-6462 -133 c-8 -22 -56 -44 -69 -31 -8 8 -4 15
18 26 35 19 56 21 51 5z m1136 -15 c17 -24 18 -29 5 -52 -20 -36 -58 -47 -98
-30 -17 8 -31 19 -31 24 0 6 14 27 31 48 36 44 66 47 93 10z m5266 -148 c0
-17 -30 -35 -59 -35 -28 0 -27 24 2 38 32 15 57 14 57 -3z m-2209 -75 c-25
-21 -51 -26 -51 -10 0 13 31 29 55 29 19 0 19 -1 -4 -19z m-10681 0 c0 -10
-41 -30 -58 -30 -10 1 39 40 49 40 5 0 9 -5 9 -10z m11860 -18 c0 -8 -43 -32
-55 -32 -11 0 -4 29 8 33 20 9 47 8 47 -1z m-31230 -191 c0 -16 -31 -41 -51
-41 -24 0 -25 26 -1 39 22 13 52 14 52 2z m15846 -6 c-26 -19 -42 -19 -26 0 7
8 20 15 29 15 13 -1 13 -3 -3 -15z m20999 -55 c-3 -5 -14 -10 -23 -10 -15 0
-15 2 -2 10 20 13 33 13 25 0z m8492 -86 c7 -19 -18 -41 -54 -51 -33 -8 -52 3
-46 25 9 37 88 57 100 26z m-17113 -40 c8 -21 -37 -64 -67 -64 -28 0 -49 20
-39 36 26 38 95 57 106 28z m33086 -18 c0 -2 -7 -7 -16 -10 -8 -3 -12 -2 -9 4
6 10 25 14 25 6z m-60180 -156 c0 -14 -48 -35 -58 -26 -8 9 26 36 45 36 7 0
13 -5 13 -10z m14835 -69 c-3 -6 -16 -11 -28 -11 -21 1 -21 1 3 15 27 14 36
13 25 -4z m7750 -11 c-9 -15 -45 -32 -45 -22 0 5 10 14 23 20 29 14 29 14 22
2z m6985 -100 c-27 -21 -50 -26 -50 -10 0 13 31 29 55 29 18 1 18 -1 -5 -19z
m9568 -8 c5 -16 -58 -46 -70 -34 -13 13 -2 31 26 42 25 10 38 8 44 -8z
m-10418 -30 c0 -12 -59 -44 -70 -37 -16 10 -12 21 13 33 26 13 57 15 57 4z
m-30000 -10 c0 -14 -23 -32 -42 -32 -23 0 -23 16 0 29 21 13 42 14 42 3z
m37096 -37 c-23 -17 -36 -19 -36 -6 0 11 18 19 40 20 11 0 10 -3 -4 -14z
m21874 -25 c0 -10 -52 -40 -70 -40 -19 0 -10 31 13 40 30 12 57 12 57 0z
m-51420 -185 c0 -8 -7 -15 -15 -15 -26 0 -18 20 13 29 1 1 2 -6 2 -14z m16560
-15 c0 -10 -41 -30 -58 -30 -10 1 39 40 49 40 5 0 9 -5 9 -10z m-2630 -19 c0
-11 -31 -24 -39 -16 -3 3 1 10 9 15 19 12 30 12 30 1z m6370 -11 c0 -10 -52
-40 -70 -40 -19 0 -10 27 13 38 28 14 57 15 57 2z m9240 -40 c0 -5 -11 -17
-26 -26 -20 -13 -28 -14 -37 -5 -9 10 -8 16 7 27 23 16 56 19 56 4z m-28299
-69 c-17 -30 -61 -42 -61 -16 0 16 27 34 53 35 14 0 16 -4 8 -19z m29229 -11
c-24 -15 -37 -11 -16 5 11 8 22 12 25 9 3 -3 -1 -9 -9 -14z m-27120 -34 c0 -2
-7 -6 -15 -10 -8 -3 -15 -1 -15 4 0 6 7 10 15 10 8 0 15 -2 15 -4z m-4880
-105 c0 -22 -35 -51 -62 -51 -26 0 -23 36 4 54 31 22 58 20 58 -3z m21490 -44
c0 -13 -40 -37 -60 -37 -20 0 -9 20 18 34 34 19 42 19 42 3z m20532 -123 c-12
-8 -27 -12 -33 -8 -14 8 8 24 36 24 18 0 18 -1 -3 -16z m-23238 -149 c-22 -16
-34 -19 -34 -7 0 10 43 32 49 26 3 -2 -4 -11 -15 -19z m-4766 -7 c-3 -7 -17
-19 -32 -27 -37 -18 -57 0 -25 23 28 19 62 21 57 4z m-4098 -78 c-8 -5 -19
-10 -25 -10 -5 0 -3 5 5 10 8 5 20 10 25 10 6 0 3 -5 -5 -10z m-4160 -37 c0
-16 -17 -32 -43 -42 -21 -8 -27 -8 -27 4 0 7 10 21 22 29 24 17 48 21 48 9z
m16610 -141 c0 -8 -43 -32 -55 -32 -14 0 -2 18 18 28 28 13 37 14 37 4z m2490
-2 c0 -16 -58 -42 -65 -29 -8 12 -8 11 25 26 32 15 40 15 40 3z m6190 -30 c-8
-5 -22 -10 -30 -10 -13 0 -13 1 0 10 8 5 22 10 30 10 13 0 13 -1 0 -10z
m-8270 -19 c0 -14 -41 -41 -62 -41 -25 0 -22 25 5 38 28 13 57 15 57 3z
m-17120 -31 c0 -14 -49 -44 -58 -36 -4 4 4 16 18 26 28 22 40 25 40 10z
m-4537 -16 c-6 -16 -52 -38 -61 -29 -3 3 3 14 13 25 22 24 57 28 48 4z m-1637
-86 c8 -13 -30 -48 -52 -48 -22 0 -17 26 9 43 27 19 34 20 43 5z m25624 -213
c-7 -8 -20 -15 -29 -15 -13 1 -13 3 3 15 26 19 42 19 26 0z m4010 -59 c0 -19
-58 -42 -72 -28 -7 7 -2 15 18 26 36 19 54 20 54 2z m-4300 -35 c0 -12 -40
-41 -57 -41 -21 0 -15 26 10 38 28 14 47 15 47 3z m430 -6 c0 -2 -10 -10 -22
-16 -21 -11 -22 -11 -9 4 13 16 31 23 31 12z m-330 -54 c0 -12 -40 -41 -57
-41 -21 0 -15 26 10 38 28 14 47 15 47 3z m-9080 -5 c0 -2 -7 -7 -16 -10 -8
-3 -12 -2 -9 4 6 10 25 14 25 6z m1226 -41 c-11 -8 -25 -15 -30 -15 -6 0 -2 7
8 15 11 8 25 15 30 15 6 0 2 -7 -8 -15z m6564 -25 c0 -10 -32 -30 -49 -30 -19
0 -12 17 12 28 28 14 37 14 37 2z m1340 -39 c0 -12 -59 -35 -68 -27 -4 4 2 14
12 22 22 16 56 19 56 5z m-11130 -19 c0 -10 -45 -32 -63 -32 -17 1 32 40 49
40 8 0 14 -4 14 -8z m20560 -12 c0 -10 -32 -30 -49 -30 -20 0 -11 20 12 30 29
12 37 12 37 0z m-9774 -15 c-23 -17 -36 -19 -36 -6 0 11 18 19 40 20 11 0 10
-3 -4 -14z m-2200 -40 c-11 -8 -25 -15 -30 -15 -6 0 -2 7 8 15 11 8 25 15 30
15 6 0 2 -7 -8 -15z m-25061 -15 c-3 -5 -11 -10 -16 -10 -6 0 -7 5 -4 10 3 6
11 10 16 10 6 0 7 -4 4 -10z m35813 -116 c3 -23 -28 -49 -71 -59 -51 -13 -46
48 6 71 41 18 61 14 65 -12z m-7638 -62 c0 -12 -51 -34 -59 -27 -7 8 28 35 46
35 7 0 13 -4 13 -8z m-314 -27 c-26 -19 -42 -19 -26 0 7 8 20 15 29 15 13 -1
13 -3 -3 -15z m14634 -20 c-14 -17 -40 -20 -40 -5 0 11 42 31 49 24 2 -2 -2
-10 -9 -19z m-47090 -21 c0 -31 -60 -59 -75 -34 -8 13 31 50 55 50 12 0 20 -7
20 -16z m7704 -118 c-8 -20 -54 -39 -54 -23 0 18 21 37 42 37 11 0 15 -5 12
-14z m24752 -38 c9 -14 -31 -48 -67 -55 -17 -3 -26 -10 -23 -18 6 -14 -41 -55
-63 -55 -33 0 -23 32 23 76 64 61 113 80 130 52z m-23282 -12 c-3 -7 -16 -18
-30 -24 -19 -9 -24 -9 -24 3 0 15 26 34 47 35 7 0 10 -6 7 -14z m22346 -415
c0 -14 -41 -41 -62 -41 -27 0 -22 17 10 34 31 18 52 20 52 7z m29920 -80 c0
-9 -41 -23 -48 -16 -2 2 -1 8 3 14 8 13 45 15 45 2z m-29764 -67 c-30 -21 -44
-16 -17 7 13 11 27 17 30 13 3 -3 -3 -12 -13 -20z m-28256 -3 c0 -12 -11 -23
-30 -29 -37 -13 -48 0 -20 28 25 25 50 26 50 1z m42020 -10 c0 -12 -39 -25
-48 -16 -7 7 17 25 36 25 6 0 12 -4 12 -9z m18000 -17 c0 -16 -56 -44 -90 -44
-26 0 -25 12 3 30 49 33 87 39 87 14z m-30730 -55 c0 -16 -31 -38 -52 -39 -25
0 -22 25 5 38 29 14 47 15 47 1z m-13414 -35 c-22 -16 -36 -18 -36 -6 0 11 43
32 50 25 3 -3 -4 -11 -14 -19z m13616 -24 c9 -11 24 -41 34 -67 l18 -46 -43
-38 c-71 -64 -120 -81 -162 -59 -15 8 -18 17 -13 38 4 15 13 34 20 42 8 10 11
29 8 50 -4 29 0 42 27 73 28 34 36 38 63 33 17 -3 39 -15 48 -26z m12213 -40
c7 -11 -54 -52 -70 -47 -5 2 -11 11 -13 20 -5 26 69 50 83 27z m13725 -81 c0
-14 -11 -25 -36 -35 -66 -28 -100 1 -42 36 44 27 78 27 78 -1z m-16045 -99
c-19 -21 -50 -27 -60 -11 -7 13 24 30 54 31 23 0 24 -1 6 -20z m2085 -99 c0
-25 -21 -41 -64 -48 -32 -5 -36 -3 -36 17 0 30 27 49 68 50 25 0 32 -4 32 -19z
m-43880 -96 c0 -16 -30 -35 -54 -35 -37 0 0 49 37 50 9 0 17 -7 17 -15z
m41506 7 c7 -4 12 -31 12 -60 0 -45 -4 -55 -22 -61 -31 -12 -112 -19 -124 -12
-6 4 -12 31 -13 60 -2 43 1 56 16 67 20 15 112 19 131 6z m-14356 -11 c0 -5
-11 -16 -25 -25 -46 -30 -78 -13 -33 18 24 17 58 21 58 7z m-18629 -33 c-27
-21 -41 -23 -41 -5 0 16 40 37 54 29 5 -3 -1 -13 -13 -24z m4952 26 c11 -11
-13 -45 -40 -55 -42 -16 -54 7 -20 37 28 24 48 30 60 18z m-14113 -94 c-8 -5
-19 -10 -25 -10 -5 0 -3 5 5 10 8 5 20 10 25 10 6 0 3 -5 -5 -10z m32460 -25
c0 -2 -13 -11 -30 -20 -31 -16 -43 -3 -12 14 18 11 42 14 42 6z m-11865 -15
c-3 -5 -11 -10 -16 -10 -6 0 -7 5 -4 10 3 6 11 10 16 10 6 0 7 -4 4 -10z
m-11865 -48 c0 -13 -49 -36 -57 -28 -5 4 1 14 11 22 22 15 46 19 46 6z m18008
-29 c-5 -25 -54 -51 -69 -36 -9 9 -4 17 22 32 41 25 51 26 47 4z m5610 -5 c-5
-14 -56 -33 -65 -24 -9 9 29 35 50 36 10 0 17 -5 15 -12z m-3718 -133 c-7 -8
-20 -15 -29 -15 -11 1 -8 5 9 15 32 18 35 18 20 0z m4219 -79 c16 -19 4 -44
-30 -61 -47 -25 -69 -20 -69 15 0 25 6 34 33 45 41 18 52 18 66 1z m67 -11
c-11 -8 -25 -15 -30 -15 -6 0 -2 7 8 15 11 8 25 15 30 15 6 0 2 -7 -8 -15z
m151 -72 c5 -14 -54 -53 -80 -53 -29 0 -33 31 -7 52 26 21 81 21 87 1z m15993
-1 c0 -18 -37 -42 -65 -42 -26 0 -29 23 -5 42 30 24 70 24 70 0z m13930 8 c0
-13 -34 -30 -62 -30 l-23 1 24 19 c24 21 61 27 61 10z m-30024 -106 c-19 -13
-46 -19 -46 -9 0 8 55 34 60 28 3 -2 -4 -11 -14 -19z m-12830 1 c-23 -17 -36
-19 -36 -6 0 11 18 19 40 20 11 0 10 -3 -4 -14z m-10996 -109 c0 -15 -29 -30
-39 -20 -3 3 3 12 13 20 24 17 26 17 26 0z m-3130 -16 c0 -5 -8 -10 -17 -10
-15 0 -16 2 -3 10 19 12 20 12 20 0z m51570 0 c0 -13 -41 -30 -54 -22 -11 6
22 32 41 32 7 0 13 -5 13 -10z m4930 -70 c0 -11 -42 -30 -66 -30 -22 0 -17 20
9 30 30 12 57 12 57 0z m-40693 -47 c9 -22 -33 -55 -65 -51 -38 4 -38 25 0 48
40 24 57 25 65 3z m17989 2 c-11 -8 -22 -12 -25 -9 -6 6 19 24 34 24 6 -1 1
-7 -9 -15z m-7676 -8 c0 -16 -57 -50 -70 -42 -17 11 -11 24 18 39 34 19 52 20
52 3z m2770 -17 c0 -5 -14 -17 -31 -26 -40 -20 -62 -4 -28 20 26 18 59 21 59
6z m-2362 -12 c-8 -22 -62 -48 -78 -37 -13 8 -11 12 9 29 26 22 75 28 69 8z
m26872 -88 c-19 -13 -30 -13 -30 0 0 6 10 10 23 10 18 0 19 -2 7 -10z m-41679
-51 c-13 -11 -27 -17 -30 -13 -7 7 28 34 43 34 6 -1 0 -10 -13 -21z m-8631
-13 c0 -26 -33 -56 -62 -56 -41 0 -31 41 15 64 43 21 47 20 47 -8z m29290 -90
c0 -2 3 -11 6 -20 7 -17 -69 -61 -92 -52 -24 9 -15 35 19 56 29 18 67 27 67
16z m-34764 -148 c8 -13 -30 -48 -52 -48 -22 0 -17 27 8 44 27 19 35 20 44 4z
m20924 -4 c0 -12 -34 -33 -52 -34 -10 0 -18 4 -18 10 0 5 8 14 18 19 19 12 52
14 52 5z m-9700 -29 c0 -2 -10 -10 -22 -16 -21 -11 -22 -11 -9 4 13 16 31 23
31 12z m21140 -24 c0 -15 -48 -42 -55 -30 -8 12 -8 12 20 27 24 14 35 15 35 3z
m-27380 -278 c0 -12 -33 -43 -47 -43 -17 0 -17 10 4 32 16 18 43 25 43 11z
m-3062 -105 c-4 -28 -52 -58 -68 -42 -14 14 -4 39 23 52 35 17 49 14 45 -10z
m30234 -43 c1 -6 -11 -17 -25 -25 -20 -11 -29 -12 -38 -3 -8 8 -4 15 17 27 31
16 45 17 46 1z m-1632 -65 c0 -8 -51 -40 -65 -40 -15 0 -2 28 18 38 28 14 47
15 47 2z m974 -18 c8 -14 -8 -31 -47 -47 -35 -14 -38 -14 -44 1 -12 32 73 75
91 46z m-35790 -27 c16 -24 16 -25 -16 -45 -18 -11 -43 -20 -56 -20 -20 0 -23
4 -20 28 2 19 13 32 38 44 19 10 36 18 36 18 1 0 9 -11 18 -25z m49436 5 c0
-10 -32 -30 -49 -30 -20 0 -11 20 12 30 29 12 37 12 37 0z m-39210 -45 c0 -26
-25 -45 -59 -45 -34 0 -25 36 14 58 31 18 45 14 45 -13z m29490 -20 c0 -17
-30 -35 -60 -35 -28 0 -21 21 11 37 32 17 49 16 49 -2z m-6880 -74 c0 -14 -41
-41 -62 -41 -25 0 -22 25 5 38 28 13 57 15 57 3z m7420 -116 c0 -2 -11 -12
-25 -21 -30 -19 -58 -8 -30 13 18 12 55 18 55 8z m-5590 -103 c0 -13 -49 -36
-57 -28 -5 4 1 14 11 22 22 15 46 19 46 6z m-9370 -36 c0 -16 -37 -46 -57 -46
-19 0 -16 31 5 46 23 18 52 18 52 0z m-7892 -157 c-5 -16 -56 -44 -65 -35 -9
9 35 45 55 46 8 0 12 -5 10 -11z m-6458 -79 c0 -11 -50 -34 -57 -26 -2 2 3 11
12 20 18 18 45 21 45 6z m576 -22 c9 -14 -31 -48 -57 -48 -26 0 -24 25 3 44
27 19 44 20 54 4z m13874 -12 c0 -16 -57 -42 -68 -31 -9 8 35 45 54 45 8 0 14
-6 14 -14z m-5220 -12 c0 -10 -33 -33 -47 -34 -21 0 -15 16 10 28 26 13 37 14
37 6z m5281 -24 c-13 -11 -28 -20 -35 -20 -6 1 0 10 13 20 13 11 28 20 35 20
6 -1 0 -10 -13 -20z m-15563 -82 c-7 -20 -52 -40 -57 -26 -4 13 26 38 47 38 7
0 12 -6 10 -12z m55634 -54 c-24 -17 -39 -14 -27 5 3 6 16 11 28 11 l21 0 -22
-16z m-31216 -59 c-11 -8 -22 -12 -25 -9 -6 6 19 24 34 24 6 -1 1 -7 -9 -15z
m-24246 -83 c0 -5 -11 -14 -25 -20 -26 -12 -33 -4 -13 16 14 14 38 16 38 4z
m14220 -2 c0 -11 -33 -30 -52 -30 -7 1 -3 9 11 20 25 22 41 26 41 10z m13430
2 c0 -13 -49 -36 -57 -28 -5 4 1 14 11 22 22 15 46 19 46 6z m23176 -112 c8 0
14 -10 14 -25 0 -14 -4 -25 -10 -25 -5 0 -10 -6 -10 -14 0 -19 -23 -26 -65
-19 -43 7 -54 26 -31 52 9 10 16 22 16 28 0 19 43 31 58 16 7 -7 20 -13 28
-13z m-27676 -25 c0 -14 -54 -55 -73 -55 -21 0 -18 34 4 51 29 23 69 25 69 4z
m-21050 -103 c0 -14 -23 -32 -42 -32 -23 0 -23 16 0 29 21 13 42 14 42 3z
m19295 -21 c7 -12 -34 -41 -57 -41 -25 0 -22 25 5 38 28 14 44 14 52 3z
m29008 -156 c1 -5 -15 -18 -36 -29 -30 -14 -41 -16 -50 -6 -9 9 -6 16 12 31
25 20 70 22 74 4z m-56153 -198 c0 -22 -32 -47 -60 -47 -20 0 -10 47 13 58 35
17 47 14 47 -11z m22440 -55 c0 -5 -11 -14 -25 -20 -28 -13 -35 1 -7 17 21 13
32 14 32 3z m4150 0 c0 -12 -51 -34 -59 -27 -7 8 28 35 46 35 7 0 13 -4 13 -8z
m-19440 -110 c0 -17 -36 -42 -60 -42 -17 0 -11 32 8 46 25 20 52 17 52 -4z
m9486 -104 c10 -15 -32 -48 -62 -48 -35 0 -29 25 11 48 26 15 42 15 51 0z
m11959 -218 c-3 -5 -12 -10 -18 -10 -7 0 -6 4 3 10 19 12 23 12 15 0z m18348
-3 c7 -18 -2 -30 -36 -45 -52 -23 -83 -10 -59 24 21 31 86 45 95 21z m-11623
-87 c-8 -5 -22 -9 -30 -9 -10 0 -8 3 5 9 27 12 43 12 25 0z m16360 -55 c0 -17
-46 -39 -61 -29 -16 10 -9 22 19 32 38 14 42 14 42 -3z m-55230 -190 c0 -16
-30 -35 -54 -35 -26 0 -18 28 11 44 30 15 43 13 43 -9z m22510 5 c-27 -21 -50
-26 -50 -10 0 13 31 29 55 29 18 1 18 -1 -5 -19z m-8170 -173 c0 -25 -33 -47
-70 -47 -33 0 -23 36 15 58 34 19 55 15 55 -11z m2850 -1 c0 -16 -18 -31 -47
-40 -35 -11 -31 29 4 48 30 15 43 13 43 -8z m28680 -26 c-24 -15 -37 -11 -16
5 11 8 22 12 25 9 3 -3 -1 -9 -9 -14z m-38012 -74 c5 -23 -33 -55 -65 -56 -34
0 -31 41 5 63 33 21 56 18 60 -7z m34173 -120 c-14 -17 -49 -27 -56 -16 -7 11
24 29 49 30 15 0 16 -3 7 -14z m-8601 -104 c0 -8 -43 -32 -55 -32 -14 0 -2 18
18 28 28 13 37 14 37 4z m-8600 -57 c-7 -9 -15 -13 -17 -11 -7 7 7 26 19 26 6
0 6 -6 -2 -15z m20905 -64 c7 -12 -34 -41 -57 -41 -25 0 -22 25 5 38 28 14 44
14 52 3z m-2329 -46 c-23 -17 -36 -19 -36 -6 0 11 18 19 40 20 11 0 10 -3 -4
-14z m214 -58 c0 -18 -50 -41 -62 -29 -6 6 -1 16 13 26 28 19 49 21 49 3z
m-3930 -46 c0 -13 -47 -41 -70 -41 -27 0 -26 28 3 40 29 12 67 12 67 1z m5728
-43 c4 -19 -44 -48 -78 -48 -30 0 -26 36 8 54 34 19 66 16 70 -6z m2230 -86
c4 -13 -55 -45 -68 -37 -19 12 -10 33 18 43 31 12 44 10 50 -6z m-28938 -207
c0 -18 -59 -50 -71 -38 -10 10 0 26 26 41 28 16 45 15 45 -3z m28850 -18 c0
-16 -47 -40 -60 -32 -13 8 -1 33 18 38 32 9 42 7 42 -6z m-34080 -122 c0 -14
-29 -35 -49 -35 -20 0 -11 27 12 38 30 15 37 14 37 -3z m-1172 -77 c-7 -20
-52 -40 -57 -26 -4 13 26 38 47 38 7 0 12 -6 10 -12z m5122 -47 c0 -5 -7 -12
-16 -15 -24 -9 -28 -7 -14 9 14 17 30 20 30 6z m10770 -62 c0 -12 -62 -50 -74
-46 -22 7 -15 28 15 46 30 19 59 19 59 0z m9126 -55 c-19 -13 -46 -19 -46 -9
0 8 55 34 60 28 3 -2 -4 -11 -14 -19z m-19736 -28 c0 -15 -60 -47 -72 -40 -17
11 -6 31 25 46 34 17 47 15 47 -6z m21996 -81 c-23 -17 -36 -19 -36 -6 0 5 8
12 18 14 32 9 37 6 18 -8z m-25972 -29 c-10 -8 -21 -12 -24 -10 -5 6 21 24 34
24 6 0 1 -6 -10 -14z m10842 -51 c-11 -8 -22 -12 -25 -9 -6 6 19 24 34 24 6
-1 1 -7 -9 -15z m23929 -24 c7 -12 -34 -41 -57 -41 -10 0 -18 7 -18 15 0 26
61 47 75 26z m-42750 -41 c-3 -5 -11 -10 -16 -10 -6 0 -7 5 -4 10 3 6 11 10
16 10 6 0 7 -4 4 -10z m12795 -10 c0 -12 -42 -31 -50 -23 -6 5 30 33 42 33 4
0 8 -5 8 -10z m3246 -56 c-22 -16 -36 -18 -36 -6 0 11 43 32 50 25 3 -3 -4
-11 -14 -19z m-5436 -64 c0 -13 -48 -35 -57 -27 -8 8 26 36 45 37 6 0 12 -5
12 -10z m36230 -3 c0 -13 -40 -37 -60 -37 -15 0 -12 38 3 43 25 11 57 7 57 -6z
m-34050 -21 c0 -2 -7 -7 -16 -10 -8 -3 -12 -2 -9 4 6 10 25 14 25 6z m-15675
-65 c-8 -13 -35 -15 -35 -2 0 5 8 11 18 13 21 5 26 2 17 -11z m27201 -156
c-23 -17 -36 -19 -36 -6 0 11 18 19 40 20 11 0 10 -3 -4 -14z m-12406 -70 c0
-19 -35 -37 -63 -33 l-22 3 23 23 c25 25 62 30 62 7z m-5029 -28 c-6 -8 -21
-17 -31 -20 -29 -7 -26 27 3 40 27 13 45 0 28 -20z m7774 -17 c-11 -18 -57
-32 -68 -21 -6 6 2 17 24 30 33 20 59 15 44 -9z m-9765 -85 c0 -2 -10 -10 -22
-16 -21 -11 -22 -11 -9 4 13 16 31 23 31 12z m11090 -118 c0 -13 -40 -37 -60
-37 -20 0 -9 20 18 34 34 19 42 19 42 3z m12401 -27 c-25 -21 -51 -26 -51 -10
0 13 31 29 55 29 19 0 19 -1 -4 -19z m11809 -95 c17 -20 6 -33 -41 -46 -48
-15 -72 -1 -48 27 26 32 70 42 89 19z m-22830 -89 c0 -18 -38 -46 -62 -46 -27
0 -21 28 10 44 35 19 52 20 52 2z m-10030 -29 c0 -18 -50 -41 -62 -29 -6 6 -1
16 13 26 28 19 49 21 49 3z m-12285 -8 c10 -16 -25 -49 -52 -49 -30 0 -31 33
0 48 29 14 44 14 52 1z m35710 -29 c-3 -5 -16 -10 -28 -10 -18 0 -19 2 -7 10
20 13 43 13 35 0z m-21055 -45 c-15 -18 -50 -26 -50 -11 0 14 41 36 53 29 4
-3 3 -11 -3 -18z m27590 -51 c0 -16 -65 -48 -80 -39 -17 11 -11 32 13 43 33
16 67 15 67 -4z m13520 -209 c-13 -16 -40 -20 -40 -7 0 14 12 22 33 22 16 0
17 -3 7 -15z m-31580 -50 c-7 -8 -17 -15 -23 -15 -6 0 -2 7 9 15 25 19 30 19
14 0z m25394 -60 c-10 -8 -27 -15 -36 -15 -28 0 -21 27 10 38 35 12 53 -3 26
-23z m-26114 10 c-14 -17 -40 -20 -40 -6 0 8 18 16 44 20 5 0 3 -6 -4 -14z
m-16960 -50 c0 -16 -54 -48 -64 -38 -13 14 -5 33 21 47 30 15 43 13 43 -9z
m1914 -12 c-10 -7 -22 -12 -27 -10 -16 5 -10 22 14 34 30 16 41 -4 13 -24z
m18646 -119 c0 -12 -34 -33 -52 -34 -25 0 -22 15 5 28 25 12 47 15 47 6z
m-25406 -39 c11 -29 -58 -70 -75 -44 -13 22 -11 27 19 43 35 19 48 20 56 1z
m12130 -52 c-21 -15 -44 -17 -44 -3 0 15 54 40 59 28 2 -6 -4 -17 -15 -25z
m35896 -13 c0 -9 -31 -30 -44 -30 -14 0 -4 29 12 33 29 8 32 7 32 -3z m-10305
-30 c8 -13 -55 -44 -67 -32 -6 6 -2 15 13 26 27 18 45 20 54 6z m17370 -119
c7 -12 -33 -41 -57 -41 -26 0 -33 21 -13 37 22 15 61 17 70 4z m-44541 -45
c-4 -11 -45 -36 -59 -36 -3 0 -5 7 -5 15 0 15 50 46 62 39 4 -3 5 -11 2 -18z
m43836 -50 c0 -36 -91 -63 -103 -32 -9 23 25 44 76 45 17 1 27 -4 27 -13z
m-35290 -26 c0 -12 -34 -30 -57 -30 -16 1 -15 3 6 20 25 21 51 26 51 10z
m12660 -19 c0 -12 -59 -35 -68 -27 -4 4 2 14 12 22 22 16 56 19 56 5z m-7240
-14 c0 -17 -47 -40 -55 -27 -3 5 7 16 22 24 35 19 33 19 33 3z m-13884 -42
c-22 -17 -36 -19 -36 -7 0 14 12 22 34 22 21 -1 21 -1 2 -15z m19574 -13 c0
-5 -11 -14 -25 -20 -28 -13 -35 1 -7 17 21 13 32 14 32 3z m-3490 -16 c0 -19
-58 -42 -71 -29 -7 7 -3 16 12 27 29 20 59 21 59 2z m-11950 -16 c0 -14 -48
-35 -58 -26 -8 9 26 36 45 36 7 0 13 -5 13 -10z m-3850 -57 c0 -16 -17 -32
-43 -42 -24 -9 -27 -8 -27 9 0 10 8 24 18 29 20 12 52 14 52 4z m6880 -7 c0
-18 -38 -46 -62 -46 -26 0 -22 35 5 48 32 15 57 14 57 -2z m10938 2 c32 -32
-6 -78 -65 -78 -28 0 -33 4 -33 23 0 27 9 40 35 55 26 15 48 15 63 0z m-5528
-28 c0 -10 -32 -30 -49 -30 -19 0 -12 17 12 28 28 14 37 14 37 2z m-4950 -109
c0 -16 -51 -43 -68 -36 -15 6 -14 9 7 26 24 20 61 26 61 10z m23088 -12 c3
-19 -69 -55 -92 -46 -27 10 -18 37 17 52 39 18 71 15 75 -6z m-24838 -14 c16
-19 2 -38 -41 -55 -21 -9 -33 -10 -41 -2 -16 16 -1 47 30 59 37 15 38 15 52
-2z m30700 -15 c-19 -12 -30 -12 -30 -1 0 10 31 20 40 14 2 -2 -2 -8 -10 -13z
m-8400 -58 c0 -8 -43 -32 -55 -32 -11 0 -4 29 8 33 20 9 47 8 47 -1z m3466
-83 c9 -16 -16 -38 -54 -45 -27 -6 -32 -4 -32 13 0 28 71 55 86 32z m-44817
-113 c16 -20 -19 -56 -54 -56 -35 0 -33 35 3 54 34 19 37 19 51 2z m23211 -35
c0 -10 -24 -21 -43 -21 -7 0 -3 7 7 15 22 17 36 19 36 6z m10586 -27 c-23 -17
-36 -18 -36 -4 0 12 42 31 50 23 3 -3 -4 -11 -14 -19z m24614 11 c0 -19 -54
-47 -74 -39 -21 8 -20 31 2 43 27 16 72 13 72 -4z m-45317 -20 c8 -19 -38 -55
-69 -55 -34 0 -32 35 4 54 35 19 58 20 65 1z m15259 -141 c-13 -9 -26 -13 -30
-9 -8 8 17 25 38 25 9 0 6 -6 -8 -16z m12958 -244 c-20 -13 -33 -13 -25 0 3 6
14 10 23 10 15 0 15 -2 2 -10z m13795 -40 c9 -15 -11 -37 -42 -45 -45 -11 -54
27 -9 45 29 12 44 12 51 0z m-20285 -78 c0 -12 -51 -34 -59 -27 -7 8 28 35 46
35 7 0 13 -4 13 -8z m-4980 -22 c-24 -15 -37 -11 -16 5 11 8 22 12 25 9 3 -3
-1 -9 -9 -14z m19520 -43 c0 -11 -39 -37 -55 -37 -16 0 -1 32 18 40 31 12 37
12 37 -3z m-46362 -34 c2 -15 -6 -24 -28 -33 -52 -21 -68 24 -17 48 29 14 41
10 45 -15z m38632 -43 c-24 -15 -37 -11 -16 5 11 8 22 12 25 9 3 -3 -1 -9 -9
-14z m-5052 -22 c-3 -7 -17 -19 -32 -27 -37 -18 -57 0 -25 23 28 19 62 21 57
4z m-4558 -48 c0 -12 -60 -44 -67 -36 -10 10 7 37 29 45 24 9 38 6 38 -9z
m14887 -96 c4 -11 -39 -34 -63 -34 -22 0 -12 23 17 37 26 14 41 13 46 -3z
m8493 -84 c0 -20 -33 -40 -66 -40 -26 0 -15 38 14 48 41 16 52 14 52 -8z
m-11940 2 c0 -5 -12 -14 -26 -21 -32 -14 -54 -3 -29 16 21 14 55 18 55 5z
m-23340 -12 c0 -14 -48 -35 -58 -26 -8 9 26 36 45 36 7 0 13 -5 13 -10z m2390
-9 c0 -7 -43 -31 -55 -31 -15 0 -1 29 18 37 22 11 37 8 37 -6z m-22074 -22 c8
-13 -13 -34 -43 -44 -18 -5 -23 -2 -23 13 0 27 53 52 66 31z m17769 -9 c3 -5
-8 -16 -25 -25 -24 -13 -30 -13 -30 -2 0 11 21 27 47 36 1 1 4 -3 8 -9z
m35471 -22 c9 -14 -31 -48 -57 -48 -27 0 -25 38 4 50 31 12 45 12 53 -2z
m-24930 -113 c-11 -8 -25 -15 -30 -15 -6 0 -2 7 8 15 11 8 25 15 30 15 6 0 2
-7 -8 -15z m-1676 -88 c0 -13 -40 -37 -60 -37 -20 0 -9 20 18 34 34 19 42 19
42 3z m-24911 -133 c-12 -14 -39 -19 -39 -8 0 11 34 33 43 27 4 -3 3 -11 -4
-19z m40838 -121 c5 -13 -46 -43 -72 -43 -8 0 -15 9 -15 19 0 31 78 52 87 24z
m-15812 -13 c0 -18 -51 -44 -70 -36 -19 7 -9 31 18 44 29 14 52 10 52 -8z
m7361 -16 c-22 -16 -36 -18 -36 -6 0 11 43 32 50 25 3 -3 -4 -11 -14 -19z
m19714 -4 c0 -9 -31 -30 -44 -30 -14 0 -4 29 12 33 29 8 32 7 32 -3z m-31600
-50 c0 -14 -48 -35 -58 -26 -8 9 26 36 45 36 7 0 13 -5 13 -10z m18610 -120
c-20 -13 -33 -13 -25 0 3 6 14 10 23 10 15 0 15 -2 2 -10z m-13910 -206 c0 -2
-9 0 -20 6 -11 6 -20 13 -20 16 0 2 9 0 20 -6 11 -6 20 -13 20 -16z m14426
-49 c-23 -17 -36 -19 -36 -6 0 5 8 12 18 14 32 9 37 6 18 -8z m-14080 -106 c8
-14 -10 -11 -32 6 -18 13 -18 14 4 8 12 -3 25 -9 28 -14z m16474 -9 c-20 -13
-33 -13 -25 0 3 6 14 10 23 10 15 0 15 -2 2 -10z m-37142 -71 c-20 -13 -38
-11 -38 4 0 8 10 19 23 24 17 8 23 7 25 -5 2 -8 -2 -18 -10 -23z m20777 23
c-3 -3 -11 0 -18 7 -9 10 -8 11 6 5 10 -3 15 -9 12 -12z m94 -38 c14 -12 -19
-1 -35 12 -18 14 -18 14 6 3 14 -6 27 -13 29 -15z m212 -93 c216 -97 649 -297
788 -362 57 -27 105 -49 107 -49 1 0 55 -25 119 -55 65 -30 118 -55 120 -55 2
0 60 -27 129 -60 70 -33 128 -60 131 -60 2 0 41 -18 87 -39 120 -56 454 -210
638 -294 30 -14 96 -44 145 -67 170 -80 460 -212 690 -315 228 -101 342 -153
629 -287 419 -195 666 -309 841 -388 83 -37 194 -89 248 -114 55 -25 100 -46
102 -46 4 0 239 -109 415 -192 151 -72 530 -248 710 -330 500 -228 515 -235
890 -415 74 -36 167 -78 205 -93 39 -16 127 -56 197 -89 70 -34 130 -61 133
-61 9 0 288 -128 413 -189 64 -32 150 -73 191 -91 141 -65 246 -120 216 -114
-16 4 -41 13 -55 20 -50 27 -122 54 -131 48 -5 -3 -9 -1 -9 4 0 8 -197 102
-213 102 -6 0 -84 36 -235 106 -51 24 -95 44 -99 44 -3 0 -27 13 -52 28 -25
15 -80 43 -121 61 -41 19 -135 63 -208 98 -205 98 -306 144 -517 235 -77 33
-171 75 -210 93 -65 31 -125 59 -300 140 -38 18 -110 52 -160 75 -49 23 -153
71 -230 105 -77 35 -205 93 -285 130 -80 37 -190 86 -245 110 -121 52 -188 82
-323 146 -57 27 -106 49 -108 49 -3 0 -82 38 -177 84 -95 46 -192 93 -217 104
-25 11 -187 85 -360 165 -173 79 -357 163 -408 186 -145 65 -380 175 -577 271
-215 105 -232 112 -550 258 -60 27 -164 76 -230 107 -66 31 -163 76 -215 100
-92 41 -153 70 -348 161 -51 24 -95 44 -97 44 -3 0 -42 18 -87 41 -76 37 -148
70 -511 235 -65 30 -161 74 -213 99 -53 25 -97 45 -99 45 -1 0 -54 24 -116 54
-63 29 -188 87 -279 129 -91 42 -198 92 -238 111 -40 20 -77 36 -82 36 -5 0
-12 5 -15 10 -3 6 -4 10 -2 10 2 0 82 -35 178 -79z m32819 55 c0 -32 -68 -57
-89 -32 -10 12 -8 17 16 30 35 19 73 20 73 2z m-25664 -171 c-23 -17 -36 -19
-36 -6 0 11 18 19 40 20 11 0 10 -3 -4 -14z m10754 -33 c0 -12 -51 -34 -59
-27 -7 8 28 35 46 35 7 0 13 -4 13 -8z m-35762 -38 c3 -20 -32 -44 -63 -44
-26 0 -16 39 13 54 33 18 46 16 50 -10z m2092 -119 c0 -17 -38 -45 -62 -45
-31 0 -21 36 14 53 34 17 48 14 48 -8z m-11113 -90 c-7 -16 -47 -36 -59 -28
-17 9 -7 33 20 47 29 16 48 7 39 -19z m17271 -257 c5 -25 -63 -57 -81 -39 -10
10 -6 17 18 37 33 27 58 28 63 2z m3112 -8 c0 -12 -40 -33 -48 -25 -4 4 2 13
12 21 23 16 36 18 36 4z m-3245 -157 c-11 -7 -26 -13 -34 -13 -12 1 -10 6 8
20 12 11 28 17 34 13 6 -4 3 -11 -8 -20z m30035 2 c17 -21 6 -44 -31 -59 -74
-31 -110 21 -39 56 43 22 54 22 70 3z m-16970 -33 c0 -5 -11 -14 -25 -20 -31
-14 -33 1 -2 16 28 14 27 13 27 4z m31614 -88 c41 -16 5 -64 -48 -64 -59 0
-73 25 -28 52 29 19 50 22 76 12z m-42098 -219 c-26 -19 -42 -19 -26 0 7 8 20
15 29 15 13 -1 13 -3 -3 -15z m14694 5 c-8 -5 -19 -10 -25 -10 -5 0 -3 5 5 10
8 5 20 10 25 10 6 0 3 -5 -5 -10z m-8670 -108 c0 -18 -37 -42 -65 -42 -23 0
-17 36 8 48 35 17 57 14 57 -6z m2390 12 c0 -10 -33 -33 -47 -34 -21 0 -15 16
10 28 26 13 37 14 37 6z m-14766 -30 c8 -22 3 -28 -44 -49 -45 -20 -67 -12
-56 23 12 36 88 57 100 26z m10831 -154 c-9 -15 -54 -32 -65 -25 -15 10 1 34
28 43 29 10 49 1 37 -18z m25835 -99 c0 -5 -10 -11 -22 -14 -22 -6 -22 -6 -4
8 23 17 26 18 26 6z m-35550 -39 c0 -17 -36 -42 -60 -42 -21 0 -9 30 18 44 36
20 42 20 42 -2z m5255 -1 c7 -12 -34 -41 -57 -41 -25 0 -23 16 4 34 25 18 44
20 53 7z m-2886 -77 c-28 -16 -39 -17 -39 -6 0 12 43 31 54 24 5 -3 -2 -11
-15 -18z m1221 13 c0 -12 -12 -21 -62 -45 -5 -2 -8 5 -8 16 0 10 10 24 23 30
31 15 47 14 47 -1z m11031 -28 c-24 -20 -46 -24 -55 -11 -7 12 6 26 34 39 37
16 51 -3 21 -28z m-14041 -313 c0 -15 -47 -39 -61 -31 -16 11 -10 24 19 38 29
15 42 13 42 -7z m-6505 -617 c-4 -5 -13 -9 -22 -9 -13 0 -13 3 -3 15 13 15 35
11 25 -6z m10245 -135 c0 -22 -29 -43 -57 -44 -32 0 -29 26 5 44 36 20 52 20
52 0z m13665 -74 c-3 -5 -11 -10 -16 -10 -6 0 -7 5 -4 10 3 6 11 10 16 10 6 0
7 -4 4 -10z m13955 -70 c0 -14 -48 -35 -58 -26 -8 9 26 36 45 36 7 0 13 -5 13
-10z m-22030 -160 c-26 -20 -50 -26 -50 -12 0 16 25 32 50 32 l25 0 -25 -20z
m-560 -240 c0 -9 -40 -30 -56 -30 -14 0 0 22 19 30 30 12 37 12 37 0z m-25795
-37 c-11 -7 -25 -13 -32 -13 -18 0 -5 28 15 33 27 6 36 -5 17 -20z m5048 -10
c11 -10 -13 -33 -34 -33 -22 0 -24 11 -7 28 13 13 31 16 41 5z m10077 -182 c0
-25 -56 -49 -73 -32 -9 10 -7 17 12 32 30 25 61 25 61 0z m-9982 -49 c2 -6
-10 -18 -27 -26 -27 -15 -30 -14 -33 2 -6 29 50 53 60 24z m39072 -152 c-8 -5
-19 -10 -25 -10 -5 0 -3 5 5 10 8 5 20 10 25 10 6 0 3 -5 -5 -10z m-24260 -5
c0 -2 -10 -9 -22 -15 -22 -11 -22 -10 -4 4 21 17 26 19 26 11z m540 -95 c0
-12 -40 -34 -48 -26 -3 4 3 13 14 21 22 17 34 19 34 5z m16756 -76 c108 -43
256 -124 230 -124 -16 0 -219 95 -247 116 -38 28 -35 30 17 8z m8272 -25 c2
-11 -8 -21 -29 -28 -43 -15 -49 -14 -49 7 0 35 72 54 78 21z m3102 -7 c0 -5
-11 -14 -25 -20 -28 -13 -44 2 -18 17 22 13 43 14 43 3z m-7876 -41 c7 -11
-43 -33 -56 -25 -6 4 -1 12 13 20 29 16 36 17 43 5z m-29944 -46 c-7 -8 -16
-12 -21 -9 -13 8 -1 24 18 24 13 0 13 -3 3 -15z m19416 -30 c-26 -19 -42 -19
-26 0 7 8 20 15 29 15 13 -1 13 -3 -3 -15z m7404 -22 c165 -77 224 -107 214
-110 -16 -5 -215 81 -272 118 -54 35 -28 31 58 -8z m-37480 -118 c6 -8 9 -19
5 -26 -10 -15 -74 -41 -85 -34 -19 12 -9 45 18 59 35 19 47 20 62 1z m62950
-37 c0 -5 -16 -16 -36 -24 -28 -12 -39 -12 -50 -3 -10 9 -11 15 -3 25 18 22
89 24 89 2z m-28010 2 c0 -10 -32 -30 -49 -30 -19 0 -12 17 12 28 28 14 37 14
37 2z m-5110 -69 c0 -12 -40 -41 -57 -41 -19 0 -16 27 5 39 22 13 52 14 52 2z
m-2970 -46 c-14 -16 -40 -20 -40 -6 0 10 17 19 39 20 11 1 11 -2 1 -14z
m15130 -13 c0 -11 -51 -35 -58 -28 -3 3 1 12 8 21 13 16 50 21 50 7z m-22680
-11 c0 -24 -69 -47 -77 -25 -4 12 32 32 60 33 9 1 17 -3 17 -8z m2790 -61 c0
-14 -48 -35 -58 -26 -8 9 26 36 45 36 7 0 13 -5 13 -10z m24630 2 c0 -14 -23
-32 -42 -32 -25 0 -22 19 5 30 28 11 37 12 37 2z m-8584 -47 c-11 -8 -27 -15
-35 -15 -13 1 -12 4 3 15 11 8 27 15 35 15 13 -1 12 -4 -3 -15z m-27016 -55
c0 -12 -40 -34 -47 -26 -9 8 17 36 33 36 8 0 14 -4 14 -10z m23610 -114 c0
-15 -59 -48 -72 -40 -14 9 -9 33 10 43 25 15 62 13 62 -3z m1164 8 c9 -3 16
-15 16 -25 0 -23 -60 -55 -84 -46 -25 10 -19 45 12 61 31 18 35 18 56 10z
m12302 -66 c8 -13 -22 -38 -48 -38 -23 0 -23 26 0 39 23 14 39 14 48 -1z
m5114 -12 c0 -14 -21 -26 -46 -26 -22 0 -16 20 9 30 31 12 37 12 37 -4z
m-48535 -6 c9 -15 -14 -40 -36 -40 -24 0 -24 19 -1 36 21 16 29 17 37 4z
m37715 -45 c-27 -14 -36 -13 -25 4 3 6 16 11 28 11 21 -1 21 -1 -3 -15z
m13394 -31 c43 -16 -11 -72 -61 -62 -26 5 -22 40 7 55 29 15 33 15 54 7z
m-22974 -134 c-20 -13 -33 -13 -25 0 3 6 14 10 23 10 15 0 15 -2 2 -10z m5320
-30 c-24 -15 -37 -11 -16 5 11 8 22 12 25 9 3 -3 -1 -9 -9 -14z m-16994 -225
c-26 -19 -42 -19 -26 0 7 8 20 15 29 15 13 -1 13 -3 -3 -15z m-19242 -123 c8
-14 -8 -30 -37 -37 -32 -8 -37 10 -9 31 19 15 39 18 46 6z m46314 -34 c18 -18
15 -26 -19 -44 -28 -14 -33 -14 -46 -1 -18 17 -10 35 21 47 29 12 30 12 44 -2z
m-12292 -43 c-11 -8 -25 -15 -30 -15 -6 0 -2 7 8 15 11 8 25 15 30 15 6 0 2
-7 -8 -15z m-3882 -11 c8 -22 -1 -34 -37 -49 -36 -15 -57 -10 -57 15 0 37 81
67 94 34z m-8357 -300 c4 -13 -45 -36 -59 -28 -7 4 -1 14 13 25 25 19 40 20
46 3z m7878 -34 c-3 -5 -12 -10 -18 -10 -7 0 -6 4 3 10 19 12 23 12 15 0z
m-24957 -87 c-4 -22 -38 -30 -38 -10 0 14 13 24 33 26 5 1 7 -7 5 -16z m21402
-28 c0 -2 -10 -10 -22 -16 -21 -11 -22 -11 -9 4 13 16 31 23 31 12z m-10992
-112 c-2 -10 -16 -24 -32 -32 -24 -11 -30 -11 -37 0 -6 10 -1 20 14 31 29 23
60 23 55 1z m-16621 -99 c7 -20 -15 -43 -47 -46 -34 -4 -34 32 0 49 33 17 39
16 47 -3z m22943 -92 c0 -11 -51 -35 -58 -28 -3 3 1 12 8 21 13 16 50 21 50 7z
m5620 0 c0 -5 -11 -14 -25 -20 -29 -13 -33 -5 -7 14 20 15 32 18 32 6z
m-27372 -24 c18 -18 15 -27 -20 -48 -41 -25 -54 -25 -61 0 -3 14 3 26 21 40
31 23 44 24 60 8z m37450 -330 c-5 -15 -55 -35 -64 -25 -4 4 -1 13 6 22 15 18
64 21 58 3z m3940 -40 c20 -20 14 -37 -18 -53 -38 -20 -74 -19 -91 1 -29 36
76 85 109 52z m-8428 -6 c0 -8 -43 -32 -55 -32 -14 0 -2 18 18 28 28 13 37 14
37 4z m-13073 -109 c4 -11 -45 -43 -67 -43 -18 0 -11 28 13 45 24 17 48 16 54
-2z m143 -2 c0 -10 -45 -41 -60 -41 -17 0 -11 28 8 39 21 13 52 14 52 2z
m7630 -59 c0 -5 -11 -14 -25 -20 -28 -13 -35 1 -7 17 21 13 32 14 32 3z m7538
-24 c-6 -16 -55 -34 -65 -24 -10 10 26 36 50 36 10 0 17 -5 15 -12z m-16468
-109 c0 -11 -54 -39 -75 -39 -26 0 -16 29 17 50 31 19 58 14 58 -11z m44855
-9 c-3 -5 -14 -10 -23 -10 -15 0 -15 2 -2 10 20 13 33 13 25 0z m-53138 -136
c8 -21 -34 -55 -62 -51 -31 3 -30 34 2 51 36 20 52 20 60 0z m18108 -3 c7 -12
-34 -41 -57 -41 -25 0 -23 14 5 33 25 18 43 21 52 8z m-22291 -186 c5 -14 -28
-45 -49 -45 -20 0 -14 38 8 48 30 15 34 14 41 -3z m26016 -130 c-14 -7 -27
-11 -30 -9 -6 7 22 24 40 23 9 0 5 -6 -10 -14z m3260 6 c0 -5 -10 -11 -22 -14
-22 -6 -22 -6 -4 8 23 17 26 18 26 6z m-4622 -117 c-9 -9 -22 -14 -30 -11 -8
3 -4 8 12 15 35 15 37 14 18 -4z m14292 -142 c0 -5 -11 -14 -25 -20 -31 -14
-33 1 -2 16 28 14 27 13 27 4z m-6120 -132 c-12 -8 -10 -10 10 -10 l25 -1 -24
-19 c-29 -25 -47 -25 -54 -1 -6 24 10 41 38 41 16 0 17 -2 5 -10z m-1240 -63
c0 -13 -40 -37 -60 -37 -19 0 -10 27 13 38 31 15 47 14 47 -1z m-29626 -153
c3 -9 6 -20 6 -25 0 -13 -60 -41 -76 -35 -24 9 -16 44 14 60 35 20 48 20 56 0z
m24760 -8 c-10 -8 -21 -12 -24 -10 -5 6 21 24 34 24 6 0 1 -6 -10 -14z
m-17614 -100 c0 -15 -57 -43 -67 -32 -10 10 28 46 49 46 10 0 18 -6 18 -14z
m29737 -183 c4 -11 -45 -43 -67 -43 -17 0 -11 38 8 49 21 13 54 10 59 -6z
m-17459 -85 c4 -19 -52 -53 -74 -44 -21 8 -17 33 9 51 27 19 61 16 65 -7z
m13912 14 c0 -8 -43 -32 -55 -32 -15 0 -1 22 18 30 29 11 37 12 37 2z m-18173
-69 c6 -16 -55 -53 -73 -46 -21 8 -17 30 9 48 25 17 58 16 64 -2z m6303 -61
c0 -12 -51 -34 -59 -27 -7 8 28 35 46 35 7 0 13 -4 13 -8z m-3500 -16 c0 -16
-37 -46 -57 -46 -19 0 -16 37 5 49 25 15 52 13 52 -3z m-22170 -294 c0 -15
-36 -42 -55 -42 -14 0 -2 31 17 44 29 21 38 20 38 -2z m12870 -170 c0 -14 -23
-32 -42 -32 -23 0 -23 16 0 29 21 13 42 14 42 3z m2900 -33 c0 -16 -31 -38
-52 -39 -10 0 -18 7 -18 15 0 16 27 34 53 35 9 0 17 -5 17 -11z m34580 -38 c0
-10 7 -24 15 -31 25 -20 17 -35 -29 -58 -53 -27 -51 -27 -76 -2 -28 28 -25 42
12 71 57 42 78 48 78 20z m-16620 -241 c-20 -13 -33 -13 -25 0 3 6 14 10 23
10 15 0 15 -2 2 -10z m-11440 -38 c0 -11 -51 -35 -58 -27 -7 7 29 34 46 35 6
0 12 -4 12 -8z m29360 -12 c0 -10 -52 -40 -70 -40 -11 0 -14 33 -3 43 10 11
73 8 73 -3z m-46162 -72 c2 -11 -8 -23 -27 -32 -41 -21 -51 -20 -51 7 0 38 71
61 78 25z m28712 -133 c0 -17 -30 -35 -59 -35 -27 0 -27 15 1 34 28 20 58 21
58 1z m-21363 -32 c12 -31 -65 -71 -82 -43 -8 13 13 39 40 50 30 13 35 12 42
-7z m5268 -62 c6 -10 -25 -31 -44 -31 -15 0 -14 27 2 33 20 9 35 8 42 -2z
m8185 -21 c-24 -15 -37 -11 -16 5 11 8 22 12 25 9 3 -3 -1 -9 -9 -14z m17873
-43 c3 -8 2 -19 -2 -25 -9 -15 -62 -34 -78 -28 -19 8 -16 43 5 55 25 15 69 13
75 -2z m-31203 -127 c0 -13 -48 -36 -56 -27 -4 4 -1 13 6 22 14 17 50 20 50 5z
m-14040 -39 c0 -26 -58 -50 -71 -30 -6 10 -2 19 12 32 28 23 59 22 59 -2z
m15705 -151 c-3 -5 -14 -10 -23 -10 -15 0 -15 2 -2 10 20 13 33 13 25 0z
m9041 -125 c-23 -17 -36 -19 -36 -6 0 11 18 19 40 20 11 0 10 -3 -4 -14z
m17410 -99 c8 -33 0 -43 -46 -57 -46 -14 -70 -1 -70 36 0 26 31 43 77 44 27 1
34 -4 39 -23z m-15868 -148 c4 -18 -52 -53 -68 -43 -18 11 -10 42 13 53 29 14
51 11 55 -10z m-3758 4 c0 -5 -11 -14 -25 -20 -26 -12 -33 -4 -13 16 14 14 38
16 38 4z m-7733 -119 c3 -7 -8 -19 -22 -29 -20 -13 -29 -14 -38 -5 -9 10 -7
17 12 32 25 20 42 21 48 2z m8743 -93 c-28 -22 -40 -25 -40 -10 0 11 30 29 50
29 10 1 6 -6 -10 -19z m2200 -148 c0 -13 -49 -36 -57 -28 -5 4 1 14 11 22 22
15 46 19 46 6z m15476 -134 c4 -6 -1 -17 -11 -25 -25 -18 -65 -17 -65 2 0 28
61 47 76 23z m-20826 -13 c0 -19 -37 -38 -58 -30 -15 6 -14 9 7 26 28 23 51
25 51 4z m22425 -174 c6 -11 -32 -41 -52 -41 -19 0 -16 27 5 39 22 13 39 14
47 2z m-42233 -16 c0 -14 -29 -31 -38 -22 -9 8 16 39 28 35 5 -2 10 -8 10 -13z
m9738 -139 c0 -2 -7 -9 -15 -16 -13 -11 -14 -10 -9 4 5 14 24 23 24 12z
m25590 -16 c-8 -5 -19 -10 -25 -10 -5 0 -3 5 5 10 8 5 20 10 25 10 6 0 3 -5
-5 -10z m-5900 -85 c-14 -16 -50 -21 -50 -6 0 9 52 31 59 25 2 -2 -2 -10 -9
-19z m-11350 -182 c-12 -8 -24 -12 -28 -8 -9 9 28 36 40 29 5 -4 0 -13 -12
-21z m29440 18 c0 -9 -24 -21 -41 -21 -16 0 -10 18 9 23 28 8 32 7 32 -2z
m-10630 -171 c-24 -15 -37 -11 -16 5 11 8 22 12 25 9 3 -3 -1 -9 -9 -14z
m-25311 -34 c10 -12 7 -18 -19 -31 -24 -13 -35 -14 -44 -5 -8 8 -5 16 14 30
30 24 34 24 49 6z m25751 4 c0 -13 -48 -35 -57 -27 -8 8 26 36 45 37 6 0 12
-5 12 -10z m-4030 -105 c0 -2 -9 -9 -20 -15 -12 -6 -20 -7 -20 -1 0 5 8 12 18
14 9 3 18 5 20 6 1 0 2 -1 2 -4z m-16568 -30 c1 -13 -49 -41 -58 -32 -10 10
27 48 43 45 8 -2 14 -7 15 -13z m15274 0 c-26 -19 -42 -19 -26 0 7 8 20 15 29
15 13 -1 13 -3 -3 -15z m-13895 -116 c-25 -20 -42 -21 -48 -2 -6 17 49 44 62
32 7 -7 2 -17 -14 -30z m-5934 -56 c2 -6 -10 -19 -28 -28 -26 -14 -33 -15 -40
-3 -6 9 -2 19 13 31 23 19 49 19 55 0z m40693 -1 c0 -17 -36 -42 -59 -42 -15
0 -22 32 -10 46 18 22 69 18 69 -4z m-17392 -44 c-6 -16 -55 -34 -65 -24 -10
10 26 36 50 36 10 0 17 -5 15 -12z m-33581 -130 c-18 -12 -27 -10 -27 6 0 8 6
16 13 19 17 6 29 -16 14 -25z m17278 -268 c3 -5 -8 -16 -24 -25 -36 -18 -51
-3 -19 19 26 18 35 20 43 6z m2810 -220 c7 -11 -54 -52 -67 -44 -15 10 -8 31
15 42 28 14 44 14 52 2z m20765 -128 c0 -12 -46 -32 -54 -24 -4 3 4 12 16 19
27 15 38 16 38 5z m14150 -121 c0 -5 -9 -11 -20 -14 -22 -6 -28 8 -7 16 19 8
27 8 27 -2z m-25039 -75 c-13 -15 -51 -28 -51 -17 0 14 24 31 43 31 16 0 17
-3 8 -14z m-16187 -111 c-23 -18 -34 -19 -34 -4 0 18 33 39 44 28 6 -5 3 -14
-10 -24z m-16108 -47 c7 -12 -21 -38 -42 -38 -13 0 -13 17 -1 38 10 15 34 16
43 0z m22040 -99 c8 -14 -33 -48 -58 -49 -28 0 -33 22 -8 42 25 20 55 24 66 7z
m3868 -318 c7 -11 -11 -26 -41 -35 -16 -5 -23 -3 -23 7 0 8 10 19 23 25 28 14
35 14 41 3z m11042 -96 c-11 -8 -22 -12 -25 -9 -6 6 19 24 34 24 6 -1 1 -7 -9
-15z m-24548 -31 c4 -28 -56 -60 -76 -40 -16 16 -7 40 21 54 31 15 52 10 55
-14z m12052 8 c0 -14 -23 -32 -42 -32 -23 0 -23 16 0 29 21 13 42 14 42 3z
m-5199 -22 c-24 -21 -41 -26 -41 -12 0 15 24 32 45 32 19 -1 19 -1 -4 -20z
m-13953 -80 c2 -19 -5 -29 -29 -42 -41 -24 -56 -23 -65 4 -5 17 0 28 21 45 35
30 69 27 73 -7z m-3858 -10 c-6 -11 -16 -20 -22 -20 -7 0 -7 4 1 13 6 8 8 17
4 20 -3 4 1 7 11 7 14 0 15 -4 6 -20z m35680 -55 c0 -2 -13 -11 -30 -20 -30
-16 -40 -9 -18 13 12 12 48 17 48 7z m-17440 -65 c0 -14 -48 -35 -58 -26 -8 9
26 36 45 36 7 0 13 -5 13 -10z m5455 -180 c3 -5 -8 -16 -25 -25 -24 -13 -30
-13 -30 -2 0 11 21 27 47 36 1 1 4 -3 8 -9z m9013 -238 c7 -21 -33 -52 -68
-52 -28 0 -45 26 -31 48 19 30 87 33 99 4z m-34388 -23 c0 -3 -11 -11 -24 -17
-33 -15 -44 11 -14 33 21 14 37 7 38 -16z m37164 -18 c6 -10 -44 -34 -53 -26
-3 4 3 13 13 21 23 16 33 18 40 5z m-35108 -13 c4 -6 -1 -17 -11 -25 -23 -16
-35 -17 -35 -2 0 5 4 8 9 5 5 -3 14 1 21 9 11 13 10 14 -5 9 -13 -5 -16 -4
-11 4 9 15 23 15 32 0z m-3666 -293 c0 -9 -12 -21 -26 -27 -21 -10 -27 -9 -34
2 -7 11 -3 18 13 27 30 17 47 16 47 -2z m57150 -45 c13 -9 12 -13 -9 -30 -31
-27 -68 -26 -76 1 -5 14 -2 25 6 30 19 12 61 11 79 -1z m-28025 -39 c8 -13
-53 -54 -70 -47 -20 7 -19 33 3 45 22 13 59 14 67 2z m11085 -226 c0 -17 -56
-49 -70 -40 -14 9 0 36 24 45 32 13 46 12 46 -5z m15725 6 c7 -12 -34 -41 -57
-41 -21 0 -25 35 -5 43 21 9 56 7 62 -2z m-29938 -208 c3 -7 -8 -19 -22 -29
-20 -13 -29 -14 -38 -5 -9 10 -7 17 12 32 25 20 42 21 48 2z m-28242 -13 c8
-13 -31 -50 -55 -50 -27 0 -25 24 3 43 26 19 43 21 52 7z m51303 -92 c16 -16
-2 -44 -38 -56 -25 -9 -31 -8 -40 8 -14 26 -13 28 18 44 33 19 45 19 60 4z
m4722 -118 c0 -9 -31 -30 -44 -30 -12 0 -6 28 7 33 20 9 37 8 37 -3z m-14277
-30 c36 -43 12 -80 -52 -80 -55 0 -52 68 4 90 29 12 29 12 48 -10z m-37639 -5
c4 -10 -5 -22 -27 -35 -29 -18 -57 -26 -57 -16 0 2 -3 11 -6 19 -4 10 4 21 23
31 36 20 59 20 67 1z m48216 -75 c-20 -13 -33 -13 -25 0 3 6 14 10 23 10 15 0
15 -2 2 -10z m-15574 -35 c-11 -8 -27 -15 -35 -15 -13 1 -12 4 3 15 11 8 27
15 35 15 13 -1 12 -4 -3 -15z m-22708 -105 c2 -14 -44 -50 -66 -50 -22 0 -23
35 -1 53 26 21 62 19 67 -3z m169 -83 c-5 -16 -35 -32 -43 -24 -4 3 -2 13 4
20 13 16 44 19 39 4z m-13967 -62 c0 -16 -54 -48 -64 -38 -13 14 -5 33 21 47
30 15 43 13 43 -9z m25085 -25 c12 -39 -28 -80 -79 -80 -31 0 -46 41 -25 66
30 36 94 45 104 14z m-3165 -25 c0 -2 -10 -10 -22 -16 -21 -11 -22 -11 -9 4
13 16 31 23 31 12z m-7511 -149 c9 -11 6 -18 -19 -36 -17 -12 -37 -19 -45 -16
-23 8 -18 42 8 54 30 15 43 14 56 -2z m8236 -306 c0 -8 -12 -21 -27 -29 -22
-13 -30 -13 -40 -3 -11 11 -9 17 11 33 27 22 56 22 56 -1z m14405 -20 c0 -12
-42 -31 -50 -23 -6 5 30 33 42 33 4 0 8 -5 8 -10z m17605 -120 c-3 -5 -14 -10
-23 -10 -15 0 -15 2 -2 10 20 13 33 13 25 0z m-54895 -35 c0 -12 -47 -45 -65
-45 -12 0 -4 34 13 46 23 18 52 17 52 -1z m44170 -185 c-8 -5 -19 -10 -25 -10
-5 0 -3 5 5 10 8 5 20 10 25 10 6 0 3 -5 -5 -10z m-40050 -14 c0 -17 -24 -27
-45 -20 -14 6 -13 8 2 20 23 17 43 18 43 0z m23838 2 c-6 -17 -36 -34 -44 -25
-4 4 1 14 12 22 23 18 37 19 32 3z m13792 -88 c-8 -5 -19 -10 -25 -10 -5 0 -3
5 5 10 8 5 20 10 25 10 6 0 3 -5 -5 -10z m-40142 -87 c-2 -10 -16 -24 -31 -33
-24 -13 -29 -13 -37 0 -7 11 -3 20 13 32 29 23 60 23 55 1z m15442 -67 c0 -3
-4 -8 -10 -11 -5 -3 -10 -1 -10 4 0 6 5 11 10 11 6 0 10 -2 10 -4z m-11966
-121 c-8 -20 -36 -28 -46 -13 -4 8 -1 18 8 25 19 14 45 6 38 -12z m5309 -38
c7 -19 -3 -32 -40 -51 -31 -15 -33 -15 -43 3 -8 16 -6 24 12 41 25 23 63 27
71 7z m3495 -59 c2 -11 -8 -23 -29 -33 -28 -15 -33 -15 -46 -2 -13 13 -12 17
8 36 27 25 62 24 67 -1z m26422 -38 c0 -14 -68 -45 -77 -36 -5 4 3 16 16 27
25 20 61 26 61 9z m-580 -214 c0 -16 -57 -39 -65 -26 -6 10 33 40 52 40 7 0
13 -6 13 -14z m-20767 -63 c12 -11 -25 -43 -50 -43 -27 0 -30 17 -5 36 19 15
45 18 55 7z m23068 -123 c-25 -22 -41 -26 -41 -10 0 11 30 29 50 29 10 0 8 -6
-9 -19z m13114 -137 c16 -16 16 -18 -5 -35 -30 -25 -67 -23 -75 3 -8 23 -8 22
20 37 28 16 41 15 60 -5z m-25441 -48 c0 -5 -12 -17 -27 -25 -21 -12 -29 -12
-39 -2 -9 9 -8 15 8 27 21 16 59 16 58 0z m-7493 -75 c-25 -22 -41 -26 -41
-10 0 11 30 29 50 29 10 0 8 -6 -9 -19z m6219 -58 c0 -11 -30 -37 -51 -45 -27
-9 -42 14 -22 35 16 18 73 26 73 10z m19400 -116 c0 -2 -7 -7 -16 -10 -8 -3
-12 -2 -9 4 6 10 25 14 25 6z m-9770 -79 c0 -19 -50 -41 -63 -28 -8 8 -5 15 9
26 24 18 54 19 54 2z m-4390 -402 c0 -19 -43 -40 -65 -31 -20 7 -11 24 19 36
32 13 46 12 46 -5z m-17092 -34 c27 -1 54 -48 34 -60 -8 -5 -8 -17 3 -46 12
-36 12 -41 -3 -52 -8 -7 -31 -13 -49 -13 -18 0 -33 -4 -33 -9 0 -5 -14 -14
-30 -20 -31 -10 -76 1 -92 24 -12 16 -9 63 3 67 8 3 5 17 -9 44 -35 69 -23 74
176 65z m35662 -10 c0 -10 -25 -21 -48 -21 -15 1 -14 3 2 15 22 17 46 20 46 6z
m-27145 -41 c-3 -5 -12 -10 -18 -10 -7 0 -6 4 3 10 19 12 23 12 15 0z m13145
-130 c0 -14 -48 -35 -58 -26 -8 9 26 36 45 36 7 0 13 -5 13 -10z m-11869 -20
c-12 -11 -27 -17 -33 -14 -14 9 12 34 36 34 21 -1 21 -1 -3 -20z m-25601 -209
c0 -13 -29 -35 -37 -28 -7 8 15 37 28 37 5 0 9 -4 9 -9z m53300 -61 c0 -11
-21 -26 -47 -34 -18 -6 -23 -3 -23 10 0 9 8 22 17 29 17 12 53 9 53 -5z
m-30322 -152 c-6 -17 -36 -34 -45 -24 -4 4 1 14 11 22 24 17 39 18 34 2z
m-3424 -114 c28 -11 18 -43 -19 -61 -33 -16 -36 -16 -53 1 -16 16 -16 18 11
42 30 26 36 27 61 18z m8606 -178 c0 -19 -38 -46 -56 -39 -21 8 -17 29 9 41
31 15 47 14 47 -2z m-7732 -148 c2 -10 -8 -23 -26 -32 -27 -14 -31 -14 -43 0
-11 14 -10 19 10 36 28 22 54 20 59 -4z m12292 -177 c0 -14 -41 -41 -62 -41
-26 0 -33 21 -13 37 21 15 75 18 75 4z m-18463 -478 c6 -17 -56 -48 -70 -34
-7 7 -5 17 8 31 20 22 56 24 62 3z m19810 -90 c5 -15 -51 -45 -71 -37 -22 8
-20 20 7 39 24 17 58 16 64 -2z m-1357 -98 c0 -22 -59 -50 -74 -35 -8 9 -5 16
13 31 28 23 61 25 61 4z m-11885 -72 c8 -23 -36 -63 -69 -63 -40 0 -49 50 -13
68 35 17 74 14 82 -5z m-6375 -23 c0 -12 -35 -31 -44 -23 -3 3 2 12 12 19 20
16 32 17 32 4z m26125 -390 c-3 -5 -14 -10 -23 -10 -15 0 -15 2 -2 10 20 13
33 13 25 0z m-32341 -156 c15 -39 -62 -97 -91 -69 -18 19 -16 28 10 52 19 18
36 26 68 32 4 0 10 -6 13 -15z m21691 -154 c-3 -5 -13 -10 -21 -10 -8 0 -12 5
-9 10 3 6 13 10 21 10 8 0 12 -4 9 -10z m-1045 -75 c0 -16 -46 -32 -58 -20 -8
8 26 35 45 35 7 0 13 -7 13 -15z m-16686 -131 c18 -7 10 -33 -18 -56 -26 -22
-50 -23 -66 -3 -9 11 -7 19 14 40 25 25 42 30 70 19z m34548 -250 c-24 -17
-39 -14 -27 5 3 6 16 11 28 11 l21 0 -22 -16z m-16502 -24 c0 -5 -11 -17 -26
-26 -20 -13 -28 -14 -37 -5 -9 10 -8 16 7 27 23 16 56 19 56 4z m4920 -115
c-14 -16 -40 -20 -40 -6 0 10 17 19 39 20 11 1 11 -2 1 -14z m5896 -240 c-11
-8 -22 -12 -25 -9 -6 6 19 24 34 24 6 -1 1 -7 -9 -15z m-17776 -229 c0 -14
-21 -26 -46 -26 -21 0 -17 16 9 28 30 15 37 14 37 -2z m24280 -275 c0 -11 -51
-33 -59 -26 -8 9 39 46 50 39 5 -3 9 -9 9 -13z m-23234 -46 c-27 -21 -53 -20
-36 0 7 8 22 15 34 15 21 -1 21 -1 2 -15z m7934 -173 c0 -13 -50 -33 -61 -26
-13 8 20 33 44 34 9 0 17 -4 17 -8z m5400 -41 c0 -14 -41 -41 -62 -41 -27 0
-22 17 10 34 31 18 52 20 52 7z m-40270 -116 c0 -2 -10 -10 -22 -16 -21 -11
-22 -11 -9 4 13 16 31 23 31 12z m38020 -155 c-20 -13 -33 -13 -25 0 3 6 14
10 23 10 15 0 15 -2 2 -10z m-34736 -185 c-6 -15 -48 -45 -64 -45 -22 0 -8 31
22 50 34 20 51 18 42 -5z m5966 -26 c0 -5 -11 -16 -26 -25 -19 -13 -28 -14
-37 -5 -9 9 -7 16 12 31 24 17 51 17 51 -1z m-8130 -86 c0 -15 -45 -53 -62
-53 -27 0 -22 16 15 39 33 22 47 26 47 14z m16270 -186 c0 -19 -38 -39 -57
-29 -13 8 -12 11 8 26 28 19 49 21 49 3z m26015 -7 c-3 -5 -13 -10 -21 -10 -8
0 -12 5 -9 10 3 6 13 10 21 10 8 0 12 -4 9 -10z m-25905 -126 c0 -33 -60 -58
-76 -32 -9 14 31 48 57 48 11 0 19 -7 19 -16z m33691 2 c-13 -15 -51 -28 -51
-17 0 14 24 31 43 31 16 0 17 -3 8 -14z m-18771 -41 c0 -8 -3 -15 -7 -15 -5 0
-18 -3 -30 -6 -13 -4 -23 -2 -23 3 0 9 35 31 53 32 4 1 7 -6 7 -14z m1455 -14
c-3 -6 -14 -11 -23 -11 -15 1 -15 2 2 15 21 16 32 13 21 -4z m31390 -17 c-23
-17 -41 -18 -51 -2 -12 19 25 39 49 26 20 -10 20 -11 2 -24z m-14602 -128 c9
-23 -49 -61 -71 -47 -17 10 -4 41 22 51 31 13 43 12 49 -4z m-44463 -20 c0
-17 -46 -56 -65 -56 -26 0 -24 29 3 49 32 24 62 27 62 7z m22410 -5 c0 -11
-31 -24 -39 -16 -3 3 1 10 9 15 19 12 30 12 30 1z"/>
</g>
</svg>
